<svg width="229" height="542" viewBox="0 0 229 542" fill="none" xmlns="http://www.w3.org/2000/svg">
<path d="M197.371 531.879L46.0668 451.36C28.9939 442.27 15.1553 417.912 15.1553 396.933V25.4709C15.1553 14.8097 5.64852 12.4426 11.4114 8.61176C11.627 8.4672 24.9168 2.90168 25.1716 2.81133C31.3657 0.624875 38.0106 -0.350896 46.0668 3.93166L197.371 84.4691C214.444 93.5582 228.282 117.916 228.282 138.895V510.34C228.282 521.489 224.382 529.44 218.148 533.072C217.776 533.288 201.761 540.299 201.35 540.426C195.842 542.125 204.819 535.836 197.371 531.879Z" fill="url(#paint0_linear_2943_72125)"/>
<path style="mix-blend-mode:color-dodge" d="M195.98 84.8851L44.6765 4.34773C36.6203 0.0651722 187.611 87.4511 187.611 87.4511C204.684 96.5402 218.522 120.898 218.522 141.878C218.522 141.878 226.892 521.905 226.892 510.756V139.312C226.892 118.332 213.053 93.9562 195.98 84.8851Z" fill="url(#paint1_radial_2943_72125)"/>
<path style="mix-blend-mode:screen" opacity="0.6" d="M185.632 536.83L34.3276 456.31C17.2547 447.221 3.41602 422.863 3.41602 401.884V30.4218C3.41602 9.44272 17.2547 -0.206583 34.3276 8.88256L185.632 89.4019C202.704 98.491 216.543 122.849 216.543 143.828V515.272C216.543 536.252 202.704 545.901 185.632 536.812V536.83Z" fill="url(#paint2_radial_2943_72125)"/>
<path d="M182.924 538.168L31.6206 457.63C14.5476 448.541 0.708984 424.183 0.708984 403.204V31.7597C0.708984 10.7806 14.5476 1.13131 31.6206 10.2205L182.924 90.7398C199.997 99.8289 213.836 124.187 213.836 145.166V516.61C213.836 537.59 199.997 547.239 182.924 538.15V538.168Z" fill="url(#paint3_linear_2943_72125)"/>
<path d="M4.94336 405.679V33.783C4.94336 15.3879 17.0767 6.94929 32.0326 14.9L182.533 95.0038C197.489 102.973 209.622 124.331 209.622 142.726V514.64C209.622 533.036 197.489 541.474 182.533 533.523L32.0326 453.42C17.0767 445.451 4.94336 424.092 4.94336 405.697V405.679Z" fill="url(#paint4_linear_2943_72125)"/>
<path d="M10.9609 407.956V37.9214C10.9609 22.5258 21.1145 15.4605 33.6399 22.1102L180.926 100.497C193.451 107.165 203.604 125.036 203.604 140.432V510.448C203.604 525.844 193.451 532.909 180.926 526.26L33.6399 447.872C21.1145 441.205 10.9609 423.334 10.9609 407.938V407.956Z" fill="url(#paint5_linear_2943_72125)"/>
<path d="M35.3441 26.2121C23.544 19.9238 13.9785 24.9653 13.9785 37.4516V411.642C13.9785 424.129 23.544 439.344 35.3441 445.632L179.219 522.212C191.019 528.5 200.585 523.459 200.585 510.972V136.764C200.585 124.277 191.019 109.062 179.219 102.774L35.3441 26.194V26.2121Z" fill="url(#paint6_linear_2943_72125)"/>
<path d="M217.896 231.142V206.061C217.896 202.862 220.013 199.122 222.62 197.749C225.227 196.357 227.344 197.839 227.344 201.037V226.118C227.344 229.317 225.227 233.057 222.62 234.431C220.013 235.822 217.896 234.34 217.896 231.142Z" fill="url(#paint7_linear_2943_72125)"/>
<path d="M220.737 233.997C219.384 233.997 218.914 232.443 218.914 231.124V206.043C218.914 203.188 220.835 199.755 223.128 198.544C223.618 198.291 224.089 198.146 224.5 198.146C225.853 198.146 226.323 199.7 226.323 201.02V226.101C226.323 228.956 224.402 232.389 222.109 233.6C221.619 233.853 221.149 233.997 220.737 233.997Z" fill="url(#paint8_linear_2943_72125)"/>
<path style="mix-blend-mode:color-dodge" d="M220.306 231.775V206.694C220.306 203.838 222.227 200.405 224.52 199.195C224.951 198.96 225.363 198.851 225.735 198.815C225.441 198.418 225.049 198.146 224.5 198.146C224.089 198.146 223.618 198.291 223.128 198.544C220.855 199.755 218.914 203.188 218.914 206.043V231.124C218.914 232.443 219.384 233.997 220.737 233.997C220.776 233.997 220.835 233.979 220.894 233.979C220.482 233.401 220.306 232.552 220.306 231.775Z" fill="url(#paint9_radial_2943_72125)"/>
<g style="mix-blend-mode:multiply">
<path d="M179.219 102.792L35.3441 26.2121C23.544 19.9238 13.9785 24.9653 13.9785 37.4516V411.642C13.9785 424.129 23.544 439.344 35.3441 445.632L179.219 522.212C191.019 528.5 200.585 523.459 200.585 510.972V136.764C200.585 124.277 191.019 109.062 179.219 102.774V102.792ZM198.723 510.954C198.723 514.821 197.743 518.02 195.861 520.17C194.136 522.14 191.705 523.188 188.804 523.188C186.178 523.188 183.179 522.338 180.14 520.712L36.2654 444.132C24.9945 438.133 15.821 423.55 15.821 411.642V37.4516C15.821 29.9164 19.6237 25.2363 25.7394 25.2363C28.366 25.2363 31.365 26.0856 34.4033 27.7119L178.278 104.292C189.549 110.291 198.723 124.874 198.723 136.782V510.972V510.954Z" fill="#BCBEC0"/>
</g>
<g opacity="0.8">
<path d="M87.6212 56.2803L120.277 72.5432L80.4275 136.998V230.347L49.712 267.101L39.2644 312.041L15.0957 342.76V298.416L30.7769 250.224L54.2987 223.734L64.7463 185.787L59.5127 135.788L87.6212 56.2803Z" fill="url(#paint10_linear_2943_72125)"/>
<path d="M176.691 177.33L200.585 190.051V185.263L176.691 172.542V101.437L172.202 99.0514V170.156L157.344 162.26L143.427 128.957L13.959 60.0566V64.8452L42.2635 79.9154V152.773L13.959 137.703V142.491L42.2635 157.562V200.17L13.959 185.064V189.853L46.7523 207.362V159.965L143.682 211.554V286.761L131.627 280.346L89.9148 291.947L13.959 251.525V256.313L65.0993 283.527V354.74L13.959 375.719V380.255L66.8438 358.553L113.633 432.224L69.4312 463.792L73.6259 466.032L148.504 412.564L172.202 425.068V516.032H176.691V427.435L200.212 439.849L200.585 439.253V435.259L176.691 422.647V361.607L200.585 374.31V369.521L176.691 356.818V309.077L200.585 321.799V317.01L176.691 304.289V229.082L200.585 241.803V237.015L176.691 224.294V177.33ZM69.588 285.876L88.5231 295.959L89.3659 296.411L131.078 284.81L143.701 291.532V339.272L125.864 329.786L69.588 352.879V285.894V285.876ZM172.202 420.243L148.151 407.54L117.239 429.622L70.9993 356.818L125.629 334.411L143.721 344.043V344.169H143.956L172.221 359.203V420.261L172.202 420.243ZM172.202 354.415L148.19 341.639V293.899L172.202 306.674V354.415ZM172.202 301.904L148.19 289.128V213.922L172.202 226.697V301.904ZM172.202 221.927L46.7523 155.158V82.3006L139.801 131.83L153.718 165.133L172.182 174.963V221.927H172.202Z" fill="#6EA6F4"/>
</g>
<path d="M177.689 265.963L177.787 256.458L177.493 256.313V173.445L169.947 167.392V252.465L97.127 215.421V290.953L121.237 332.478V490.589L130.214 495.902V330.4L106.104 288.875V229.389L177.689 265.963Z" fill="#3DAADC"/>
<path d="M136.211 444.691C136.211 451.377 131.095 454.07 124.764 450.709C118.432 447.348 113.316 439.198 113.316 432.512C113.316 425.826 118.432 423.134 124.764 426.495C131.095 429.856 136.211 438.005 136.211 444.691Z" fill="white"/>
<path d="M132.997 461.189C130.253 461.189 127.332 460.376 124.294 458.75C113.925 453.239 105.496 439.831 105.496 428.862C105.496 421.056 109.848 416.015 116.571 416.015C119.315 416.015 122.236 416.828 125.274 418.454C135.643 423.965 144.072 437.373 144.072 448.342C144.072 456.148 139.72 461.189 132.997 461.189ZM116.571 417.822C110.945 417.822 107.456 422.05 107.456 428.862C107.456 439.253 115.454 451.956 125.274 457.196C127.979 458.623 130.645 459.382 132.997 459.382C138.623 459.382 142.112 455.154 142.112 448.342C142.112 437.951 134.114 425.248 124.294 420.008C121.589 418.581 118.923 417.804 116.571 417.804V417.822Z" fill="white"/>
<path style="mix-blend-mode:color-dodge" d="M87.0533 213.054L86.0977 214.632L193.522 269.933L194.477 268.355L87.0533 213.054Z" fill="url(#paint11_radial_2943_72125)"/>
<path style="mix-blend-mode:color-dodge" d="M124.827 348.211L124.473 492.209L126.433 492.213L126.787 348.215L124.827 348.211Z" fill="url(#paint12_radial_2943_72125)"/>
<defs>
<linearGradient id="paint0_linear_2943_72125" x1="-34.7894" y1="18.0081" x2="139.725" y2="345.872" gradientUnits="userSpaceOnUse">
<stop offset="0.06" stop-color="#200041"/>
<stop offset="0.26" stop-color="#210143"/>
<stop offset="0.36" stop-color="#25084A"/>
<stop offset="0.43" stop-color="#2C1357"/>
<stop offset="0.47" stop-color="#311B61"/>
<stop offset="0.48" stop-color="#351F65"/>
<stop offset="0.5" stop-color="#422C72"/>
<stop offset="0.51" stop-color="#574188"/>
<stop offset="0.52" stop-color="#755FA6"/>
<stop offset="0.53" stop-color="#8770B8"/>
<stop offset="0.54" stop-color="#7D66AE"/>
<stop offset="0.56" stop-color="#5C458C"/>
<stop offset="0.59" stop-color="#442E74"/>
<stop offset="0.61" stop-color="#351F66"/>
<stop offset="0.63" stop-color="#311B61"/>
<stop offset="0.67" stop-color="#2A1054"/>
<stop offset="0.75" stop-color="#220446"/>
<stop offset="0.81" stop-color="#200041"/>
<stop offset="1" stop-color="#200041"/>
</linearGradient>
<radialGradient id="paint1_radial_2943_72125" cx="0" cy="0" r="1" gradientUnits="userSpaceOnUse" gradientTransform="translate(272.348 146.214) scale(370.88 341.9)">
<stop stop-color="#711F56"/>
<stop offset="0.16" stop-color="#6B1D51"/>
<stop offset="0.36" stop-color="#5C1946"/>
<stop offset="0.58" stop-color="#421232"/>
<stop offset="0.82" stop-color="#1F0818"/>
<stop offset="1"/>
</radialGradient>
<radialGradient id="paint2_radial_2943_72125" cx="0" cy="0" r="1" gradientUnits="userSpaceOnUse" gradientTransform="translate(210.29 121.783) scale(218.498 201.425)">
<stop stop-color="#AF8AFC"/>
<stop offset="1" stop-color="#10054D"/>
</radialGradient>
<linearGradient id="paint3_linear_2943_72125" x1="227.91" y1="309.006" x2="-366.753" y2="107.087" gradientUnits="userSpaceOnUse">
<stop offset="0.19" stop-color="#3D065F"/>
<stop offset="0.93" stop-color="#3D065F"/>
</linearGradient>
<linearGradient id="paint4_linear_2943_72125" x1="235.79" y1="524.525" x2="-32.2553" y2="-89.8748" gradientUnits="userSpaceOnUse">
<stop stop-color="#311B61"/>
<stop offset="0.2" stop-color="#290E52"/>
<stop offset="0.49" stop-color="#200041"/>
<stop offset="1" stop-color="#0F001F"/>
</linearGradient>
<linearGradient id="paint5_linear_2943_72125" x1="10.9609" y1="274.203" x2="203.604" y2="274.203" gradientUnits="userSpaceOnUse">
<stop stop-color="#311B61"/>
<stop offset="0.2" stop-color="#290E52"/>
<stop offset="0.49" stop-color="#200041"/>
<stop offset="1" stop-color="#0F001F"/>
</linearGradient>
<linearGradient id="paint6_linear_2943_72125" x1="256.527" y1="437.898" x2="-230.155" y2="-190.229" gradientUnits="userSpaceOnUse">
<stop offset="0.03" stop-color="#1D3FC9"/>
<stop offset="0.21" stop-color="#4157D1"/>
<stop offset="0.62" stop-color="#4C9BE8"/>
<stop offset="1" stop-color="#2AF6FF"/>
</linearGradient>
<linearGradient id="paint7_linear_2943_72125" x1="5357.53" y1="-13183.3" x2="5342.62" y2="-13136.6" gradientUnits="userSpaceOnUse">
<stop stop-color="#311B61"/>
<stop offset="0.2" stop-color="#290E52"/>
<stop offset="0.49" stop-color="#200041"/>
<stop offset="1" stop-color="#0F001F"/>
</linearGradient>
<linearGradient id="paint8_linear_2943_72125" x1="231.498" y1="216.433" x2="207.729" y2="215.328" gradientUnits="userSpaceOnUse">
<stop stop-color="#3D065F"/>
<stop offset="1" stop-color="#5F27BD"/>
</linearGradient>
<radialGradient id="paint9_radial_2943_72125" cx="0" cy="0" r="1" gradientUnits="userSpaceOnUse" gradientTransform="translate(219.541 207.091) scale(13.9562 12.8657)">
<stop stop-color="#711F56"/>
<stop offset="0.16" stop-color="#6B1D51"/>
<stop offset="0.36" stop-color="#5C1946"/>
<stop offset="0.58" stop-color="#421232"/>
<stop offset="0.82" stop-color="#1F0818"/>
<stop offset="1"/>
</radialGradient>
<linearGradient id="paint10_linear_2943_72125" x1="-195.66" y1="250.567" x2="332.797" y2="122.056" gradientUnits="userSpaceOnUse">
<stop offset="0.04" stop-color="#138BBD"/>
<stop offset="0.23" stop-color="#169AC6"/>
<stop offset="0.59" stop-color="#1EC2DF"/>
<stop offset="1" stop-color="#2AF6FF"/>
</linearGradient>
<radialGradient id="paint11_radial_2943_72125" cx="0" cy="0" r="1" gradientUnits="userSpaceOnUse" gradientTransform="translate(140.499 241.226) rotate(178.617) scale(44.1011 40.6593)">
<stop stop-color="white"/>
<stop offset="1"/>
</radialGradient>
<radialGradient id="paint12_radial_2943_72125" cx="0" cy="0" r="1" gradientUnits="userSpaceOnUse" gradientTransform="translate(125.668 437.662) rotate(-122.629) scale(72.5436 75.2568)">
<stop stop-color="white"/>
<stop offset="0.05" stop-color="#E9E9E9"/>
<stop offset="0.2" stop-color="#ACACAC"/>
<stop offset="0.35" stop-color="#777777"/>
<stop offset="0.5" stop-color="#4C4C4C"/>
<stop offset="0.64" stop-color="#2B2B2B"/>
<stop offset="0.77" stop-color="#131313"/>
<stop offset="0.9" stop-color="#040404"/>
<stop offset="1"/>
</radialGradient>
</defs>
</svg>
